{"title":"Papa piquillo (chiquito de la calzada)[dvdrip][jr][xvid][mp3][sp","uid":8713278,"size":733169664,"categoryP":"video","categoryS":"movies","magnet":"?xt=urn:btih:3bcbab274e5873e6f1ba23a26ef3d672f228de6d&amp;dn=Papa+piquillo+%28chiquito+de+la+calzada%29%5Bdvdrip%5D%5Bjr%5D%5Bxvid%5D%5Bmp3%5D%5Bsp&amp;tr=udp%3A%2F%2Ftracker.openbittorrent.com%3A80&amp;tr=udp%3A%2F%2Fopen.demonii.com%3A1337&amp;tr=udp%3A%2F%2Ftracker.coppersurfer.tk%3A6969&amp;tr=udp%3A%2F%2Fexodus.desync.com%3A6969","seeders":2,"leechers":0,"uploader":null,"files":1,"time":1374282464,"description":"Papa piquillo (chiquito de la calzada)[dvdrip][jr][xvid][mp3][spanish][1998]\n\nFormat   : AVI\nFormat/Info   : Audio Video Interleave\nFile size  : 699 MiB\nDuration  : 1h 25mn\nOverall bit rate   : 1 140 Kbps\nWriting library  : VirtualDub build 13870/release\n\nVideo\nID    : 0\nFormat   : MPEG-4 Visual\nFormat profile  : Advanced Simple@L5\nFormat settings, BVOP   : No\nFormat settings, QPel   : No\nFormat settings, GMC    : No warppoints\nFormat settings, Matrix :   Default (H.263)\nCodec ID   : XVID\nCodec ID/Hint : XviD\nDuration   : 1h 25mn\nBit rate  : 1 003 Kbps\nWidth  : 576 pixels\nHeight  : 336 pixels\nDisplay aspect ratio  : 1.714\nFrame rate : 25.000 fps\nColor space  : YUV\nChroma subsampling   : 4:2:0\nBit depth   : 8 bits\nScan type : Progressive\nCompression mode  : Lossy\nBits/(Pixel*Frame)   : 0.207\nStream size   : 615 MiB (88%)\nWriting library   : XviD 1.0.0 RC2 (Jambo) (UTC 2004-02-01)\n\nAudio\nID   : 1\nFormat  : MPEG Audio\nFormat version : Version 1\nFormat profile  : Layer 3\nMode  : Joint stereo\nMode extension  : MS Stereo\nCodec ID  : 55\nCodec ID/Hint  :MP3\nDuration : 1h 25mn\nBit rate mode : Constant\nBit rate   : 128 Kbps\nChannel(s)   : 2 channels\nSampling rate : 44.1 KHz\nCompression mode  : Lossy\nStream size   : 78.3 MiB (11%)\nAlignment   : Split accross interleaves\nInterleave, duration   : 40 ms (1.00 video frame)\nInterleave, preload duration  : 467 ms\n","torrent":{"xt":"urn:btih:3bcbab274e5873e6f1ba23a26ef3d672f228de6d","amp;dn":"Papa+piquillo+%28chiquito+de+la+calzada%29%5Bdvdrip%5D%5Bjr%5D%5Bxvid%5D%5Bmp3%5D%5Bsp","amp;tr":["udp%3A%2F%2Ftracker.openbittorrent.com%3A80","udp%3A%2F%2Fopen.demonii.com%3A1337","udp%3A%2F%2Ftracker.coppersurfer.tk%3A6969","udp%3A%2F%2Fexodus.desync.com%3A6969"],"infoHash":"3bcbab274e5873e6f1ba23a26ef3d672f228de6d","infoHashBuffer":{"type":"Buffer","data":[59,203,171,39,78,88,115,230,241,186,35,162,110,243,214,114,242,40,222,109]},"announce":[],"urlList":[]}}